<?xml version="1.0" encoding="utf-8"?>
<!-- Generator: Adobe Illustrator 26.2.1, SVG Export Plug-In . SVG Version: 6.00 Build 0)  -->
<svg version="1.1" id="Layer_1" xmlns="http://www.w3.org/2000/svg" xmlns:xlink="http://www.w3.org/1999/xlink" x="0px" y="0px"
	 viewBox="0 0 700.1 267.4" style="enable-background:new 0 0 700.1 267.4;" xml:space="preserve">
<g>
	<path d="M577.1,191.8c-4.9,0-9.4,2.9-11.3,7.4s-1,9.8,2.4,13.3c3.4,3.5,8.6,4.7,13.2,2.9c4.6-1.8,7.7-6.1,7.8-11.1
		c0.1-3.3-1.1-6.5-3.4-8.9C583.6,193.2,580.4,191.8,577.1,191.8L577.1,191.8z"/>
	<path d="M577.1,140.8c-16.8,0-32.8,6.7-44.7,18.5c-11.9,11.8-18.5,27.9-18.6,44.7c0,16.8,6.6,32.9,18.4,44.7
		c11.8,11.9,27.9,18.6,44.6,18.7c16.8,0.1,32.9-6.5,44.8-18.3c11.9-11.8,18.7-27.8,18.8-44.6c0.1-16.8-6.5-33-18.4-45
		C610.1,147.5,594,140.8,577.1,140.8L577.1,140.8z M577.1,230.9c-7.1,0-14-2.8-19-7.9c-5.1-5.1-7.9-11.9-7.9-19c0-7.1,2.9-14,8-19
		c5.1-5,11.9-7.8,19.1-7.8s14,3,19,8.1c5,5.1,7.8,12,7.7,19.1c-0.1,7-3,13.8-8,18.7C590.9,228.1,584.1,230.9,577.1,230.9
		L577.1,230.9z"/>
	<path d="M131.4,140.8c-16.8,0-32.8,6.7-44.6,18.6c-11.8,11.9-18.5,27.9-18.5,44.7c0,16.8,6.6,32.8,18.5,44.7
		c11.8,11.9,27.9,18.6,44.6,18.6c16.8,0.1,32.8-6.5,44.7-18.3c11.9-11.8,18.6-27.8,18.7-44.6c0.1-16.9-6.6-33.1-18.5-45
		C164.5,147.5,148.3,140.8,131.4,140.8L131.4,140.8z M131.4,230.9c-7.1,0-14-2.9-19-7.9c-5-5.1-7.8-11.9-7.8-19.1c0-7.1,2.9-14,8-19
		c5.1-5,12-7.8,19.1-7.7c7.1,0.1,13.9,3,18.9,8.1c5,5.1,7.7,12,7.6,19.1c-0.1,7.1-3,13.8-8,18.8
		C145.3,228.2,138.5,230.9,131.4,230.9L131.4,230.9z"/>
	<path d="M131.4,191.8c-4.9,0-9.3,3-11.2,7.5c-1.9,4.5-0.9,9.8,2.5,13.3c3.4,3.5,8.6,4.6,13.2,2.9c4.6-1.8,7.6-6.1,7.8-11
		c0.1-3.3-1.2-6.5-3.5-8.9C137.9,193.1,134.7,191.8,131.4,191.8L131.4,191.8z"/>
	<path d="M688.4,137.8c-46.7-31.1-104.6-47.9-177.9-51.5l-99.2-69.6c-8.2-5.8-17.6-9.6-27.5-11.2c-21.5-3.1-43.2-4.9-64.9-5.3
		c-0.4,0-0.8,0-1.2,0h-0.9c-34.1-1-68.2,0.7-102.1,5.2c-9.3,1.4-18.1,4.9-25.9,10.1L103,72.5H50.4c-7.2,0-14,2.9-19.1,7.9
		c-5.1,5.1-7.9,11.9-7.9,19.1v11.2c0,3.1-1.1,6-3.1,8.3L7.1,133.6c-5.3,5.8-7.8,13.6-6.9,21.4l6.3,49.5c0.8,6.6,4,12.6,8.9,17
		c4.9,4.4,11.3,6.8,17.9,6.8h24.3c-2.6-7.7-3.9-15.7-3.9-23.8c0-27.8,14.8-53.5,38.9-67.4c24.1-13.9,53.8-13.9,77.9,0
		c24.1,13.9,38.9,39.6,38.9,67.4c0,8.2-1.3,16.4-3.9,24.1h297.7c-2.6-7.8-4-15.9-4-24.1c0-27.8,14.8-53.5,38.9-67.4
		c24.1-13.9,53.8-13.9,77.9,0c24.1,13.9,38.9,39.6,38.9,67.4c0,8.2-1.3,16.4-3.9,24.1H673c7.2,0,14.2-2.9,19.3-8
		c5.1-5.2,7.9-12.1,7.8-19.4V160C700.2,151.1,695.8,142.8,688.4,137.8L688.4,137.8z M310.5,86.3H191.9L170,45.9L197,28
		c6.1-4,13-6.7,20.2-7.9c30.9-4.2,62.1-6,93.2-5.2L310.5,86.3z M325.1,86.3V15.3c18.9,0.5,37.8,2.1,56.6,4.7
		c7.7,1.2,15,4.2,21.4,8.7L485,86.3H325.1z"/>
</g>
</svg>
