<?xml version="1.0" encoding="utf-8"?>
<!-- Generator: Adobe Illustrator 26.2.1, SVG Export Plug-In . SVG Version: 6.00 Build 0)  -->
<svg version="1.1" id="Layer_1" xmlns="http://www.w3.org/2000/svg" xmlns:xlink="http://www.w3.org/1999/xlink" x="0px" y="0px"
	 viewBox="0 0 179.2 179.2" style="enable-background:new 0 0 179.2 179.2;" xml:space="preserve">
<g>
	<path d="M80.1,73.1V7c0-3.9-3.1-7-7-7H7C3.1,0,0,3.1,0,7v66.1c0,3.9,3.1,7,7,7h66.1C76.9,80.1,80.1,76.9,80.1,73.1z M66.1,66.1H14
		V14h52.1V66.1z"/>
	<path d="M172.2,33h-66.1c-3.9,0-7,3.1-7,7v59.1H40c-3.9,0-7,3.1-7,7v66.1c0,3.9,3.1,7,7,7h66.1l66.1,0c3.9,0,7-3.1,7-7V40
		C179.2,36.2,176.1,33,172.2,33L172.2,33z M113.1,47h52.1v52.1h-52.1V47z M47,113.1h52.1v52.1H47V113.1z M165.2,165.2h-52.1v-52.1
		l52.1,0V165.2z"/>
</g>
</svg>
