<?xml version="1.0" encoding="utf-8"?>
<!-- Generator: Adobe Illustrator 26.2.1, SVG Export Plug-In . SVG Version: 6.00 Build 0)  -->
<svg version="1.1" id="Layer_1" xmlns="http://www.w3.org/2000/svg" xmlns:xlink="http://www.w3.org/1999/xlink" x="0px" y="0px"
	 viewBox="0 0 420 490" style="enable-background:new 0 0 420 490;" xml:space="preserve">
<g>
	<path d="M46.7,420H70v23.3c0,12.4,4.9,24.2,13.7,33c8.8,8.8,20.6,13.7,33,13.7h256.7c12.4,0,24.2-4.9,33-13.7
		c8.8-8.8,13.7-20.6,13.7-33V201.2c0-6.5-1.4-12.8-4-18.7c-0.1-0.4-0.4-0.7-0.5-1h0c-2.2-4.9-5.3-9.4-9.1-13.3l-44.7-44.7V46.7
		c0-12.4-4.9-24.2-13.7-33C339.2,4.9,327.4,0,315,0H46.7c-12.4,0-24.2,4.9-33,13.7C4.9,22.4,0,34.3,0,46.7v326.7
		c0,12.4,4.9,24.2,13.7,33C22.4,415.1,34.3,420,46.7,420L46.7,420z M396.7,443.3c0,6.2-2.5,12.1-6.8,16.5s-10.3,6.8-16.5,6.8H116.7
		c-6.2,0-12.1-2.5-16.5-6.8s-6.8-10.3-6.8-16.5V116.7c0-6.2,2.5-12.1,6.8-16.5s10.3-6.8,16.5-6.8h172.2c0.9,0,1.9,0.1,2.8,0.3v69.7
		c0,9.3,3.7,18.2,10.2,24.8s15.5,10.2,24.8,10.2h69.7c0.2,0.9,0.2,1.9,0.3,2.8L396.7,443.3z M341.7,136.6l38.4,38.4h-53.5
		c-6.4,0-11.7-5.2-11.7-11.7v-53.5L341.7,136.6z M23.3,46.7c0-6.2,2.5-12.1,6.8-16.5s10.3-6.8,16.5-6.8H315c6.2,0,12.1,2.5,16.5,6.8
		s6.8,10.3,6.8,16.5v53.5l-16.5-16.5v0c-4-3.9-8.7-7.1-13.8-9.3l-0.3-0.2c-5.9-2.7-12.4-4.1-18.9-4.2H116.7
		c-12.4,0-24.2,4.9-33,13.7c-8.8,8.8-13.7,20.6-13.7,33v280H46.7c-6.2,0-12.1-2.5-16.5-6.8s-6.8-10.3-6.8-16.5L23.3,46.7z"/>
	<path d="M175,215.8c-10.8,0-21.2,4.3-28.9,12c-7.7,7.7-12,18-12,28.9c0,10.8,4.3,21.2,12,28.9c7.7,7.7,18,12,28.9,12
		s21.2-4.3,28.9-12c7.7-7.7,12-18,12-28.9c0-10.8-4.3-21.2-12-28.9C196.2,220.1,185.8,215.8,175,215.8L175,215.8z M175,274.2
		L175,274.2c-4.6,0-9.1-1.8-12.4-5.1c-3.3-3.3-5.1-7.7-5.1-12.4c0-4.6,1.8-9.1,5.1-12.4s7.7-5.1,12.4-5.1s9.1,1.8,12.4,5.1
		s5.1,7.7,5.1,12.4c0,4.6-1.8,9.1-5.1,12.4C184.1,272.3,179.6,274.2,175,274.2L175,274.2z"/>
	<path d="M175,332.5c-10.8,0-21.2,4.3-28.9,12c-7.7,7.7-12,18-12,28.9c0,10.8,4.3,21.2,12,28.9c7.7,7.7,18,12,28.9,12
		s21.2-4.3,28.9-12c7.7-7.7,12-18,12-28.9c0-10.8-4.3-21.2-12-28.9C196.2,336.8,185.8,332.5,175,332.5z M175,390.8
		c-4.6,0-9.1-1.8-12.4-5.1s-5.1-7.7-5.1-12.4c0-4.6,1.8-9.1,5.1-12.4c3.3-3.3,7.7-5.1,12.4-5.1s9.1,1.8,12.4,5.1
		c3.3,3.3,5.1,7.7,5.1,12.4c0,4.6-1.8,9.1-5.1,12.4S179.6,390.8,175,390.8z"/>
	<path d="M326.7,385H245c-6.4,0-11.7,5.2-11.7,11.7c0,6.4,5.2,11.7,11.7,11.7h81.7c6.4,0,11.7-5.2,11.7-11.7
		C338.3,390.2,333.1,385,326.7,385z"/>
	<path d="M245,361.7h46.7c6.4,0,11.7-5.2,11.7-11.7s-5.2-11.7-11.7-11.7H245c-6.4,0-11.7,5.2-11.7,11.7S238.6,361.7,245,361.7z"/>
	<path d="M326.7,268.3H245c-6.4,0-11.7,5.2-11.7,11.7s5.2,11.7,11.7,11.7h81.7c6.4,0,11.7-5.2,11.7-11.7S333.1,268.3,326.7,268.3z"
		/>
	<path d="M245,245h46.7c6.4,0,11.7-5.2,11.7-11.7c0-6.4-5.2-11.7-11.7-11.7H245c-6.4,0-11.7,5.2-11.7,11.7
		C233.3,239.8,238.6,245,245,245z"/>
</g>
</svg>
