<?xml version="1.0" encoding="utf-8"?>
<!-- Generator: Adobe Illustrator 26.2.1, SVG Export Plug-In . SVG Version: 6.00 Build 0)  -->
<svg version="1.1" id="Layer_1" xmlns="http://www.w3.org/2000/svg" xmlns:xlink="http://www.w3.org/1999/xlink" x="0px" y="0px"
	 viewBox="0 0 332.6 332.6" style="enable-background:new 0 0 332.6 332.6;" xml:space="preserve">
<g>
	<path d="M185.9,332.6h-39.2c-11.2,0-20.2-7.8-21.8-18.5l-3.9-22.4c-3.9-1.7-7.8-3.4-11.8-5l-18.5,13.4c-9,6.2-21.3,5.6-28.6-2.2
		l-27.4-27.4c-7.8-7.8-9-19.6-2.2-28.6l13.4-18.5c-1.7-3.9-3.4-7.8-5-11.8l-22.4-3.9C7.8,206.1,0,196.6,0,185.9v-39.2
		c0-11.2,7.8-20.2,18.5-21.8l22.4-3.9c1.7-3.9,3.4-7.8,5-11.8L32.5,90.7c-6.2-9-5.6-21.3,2.2-28.6l27.4-27.4
		c7.8-7.8,19.6-9,28.6-2.2l18.5,13.4c3.9-1.7,7.8-3.4,11.8-5l3.9-22.4C126.6,7.8,136.1,0,146.7,0h39.2c11.2,0,20.2,7.8,21.8,18.5
		l3.9,22.4c3.9,1.7,7.8,3.4,11.8,5l18.5-13.4c9-6.2,21.3-5,28.6,2.2l27.4,27.4c7.8,7.8,9,19.6,2.2,28.6l-13.4,18.5
		c1.7,3.9,3.4,7.8,5,11.8l22.4,3.9c10.6,1.7,18.5,11.2,18.5,21.8v39.2c0,11.2-7.8,20.2-18.5,21.8l-22.4,3.9c-1.7,3.9-3.4,7.8-5,11.8
		l13.4,18.5c6.2,9,5,21.3-2.2,28.6l-27.4,27.4c-7.8,7.8-19.6,9-28.6,2.2l-18.5-13.4c-3.9,1.7-7.8,3.4-11.8,5l-3.9,22.4
		C206.1,325.4,196.6,332.6,185.9,332.6L185.9,332.6z M107.5,267.1l4.5,2.2c6.2,3.4,12.3,5.6,19,7.8l5,1.7l5.6,32.5
		c0.6,2.8,2.8,4.5,5.6,4.5h39.2c2.8,0,5-1.7,5.6-4.5l5.6-32.5l5-1.7c6.7-2.2,12.9-4.5,18.5-7.8l4.5-2.2l26.9,19
		c2.2,1.7,5,1.1,7.3-0.6l27.4-27.4c1.7-1.7,2.2-5,0.6-7.3l-19-26.9l2.2-4.5c3.4-6.2,5.6-12.3,7.8-18.5l1.7-5l32.5-5.6
		c2.8-0.6,4.5-2.8,4.5-5.6v-39.2c0-2.8-1.7-5-4.5-5.6l-32.5-5.6l-2.2-4.5c-2.2-6.2-4.5-12.9-7.8-18.5l-2.2-4.5l19-26.9
		c1.7-2.2,1.1-5-0.6-7.3l-27.4-27.4c-1.7-1.7-5-2.2-7.3-0.6l-26.9,19l-4.5-2.2c-6.2-3.4-12.3-5.6-19-7.8l-5-1.7L191,19.6
		c-0.6-2.8-2.8-4.5-5.6-4.5h-39.2c-2.8,0-5,2.2-5.6,4.5L135,52.1l-3.9,1.1c-6.7,2.2-12.9,4.5-19,7.8l-4.5,2.2l-26.9-19
		c-2.2-1.7-5-1.1-7.3,0.6L45.9,72.2c-1.7,1.7-2.2,5-0.6,7.3l19,26.9l-2.2,4.5c-3.4,6.2-5.6,12.3-7.8,19l-1.7,5l-32.5,5.6
		c-2.8,0.6-4.5,2.8-4.5,5.6v39.2c0,2.8,2.2,5,4.5,5.6l32.5,5.6l1.7,5c2.2,6.7,4.5,12.9,7.8,19l2.2,4.5l-19,26.9
		c-1.7,2.2-1.1,5,0.6,7.3l27.4,27.4c1.7,1.7,5,2.2,7.3,0.6L107.5,267.1z M166.3,232.4c-37,0-67.2-30.2-67.2-67.2S129.4,98,166.3,98
		s67.2,30.2,67.2,67.2S203.3,232.4,166.3,232.4z M166.3,114.8c-28,0-50.4,22.4-50.4,50.4s22.4,50.4,50.4,50.4s50.4-22.4,50.4-50.4
		S194.3,114.8,166.3,114.8L166.3,114.8z"/>
</g>
</svg>
