<?xml version="1.0" encoding="utf-8"?>
<!-- Generator: Adobe Illustrator 26.2.1, SVG Export Plug-In . SVG Version: 6.00 Build 0)  -->
<svg version="1.1" id="Layer_1" xmlns="http://www.w3.org/2000/svg" xmlns:xlink="http://www.w3.org/1999/xlink" x="0px" y="0px"
	 viewBox="0 0 302 429.6" style="enable-background:new 0 0 302 429.6;" xml:space="preserve">
<style type="text/css">
	.st0{fill-rule:evenodd;clip-rule:evenodd;}
</style>
<g>
	<path class="st0" d="M151,0c-36,0-70.8,12.9-98.2,36.3s-45.5,55.8-51,91.5c-5.5,35.6,1.8,72,20.7,102.6l119.9,193.2
		c2.3,3.7,6.3,6,10.7,6h0.1l0,0c4.4,0,8.5-2.3,10.7-6.1l116.8-195l0,0c18.3-30.7,25.1-66.9,19.2-102.2
		c-5.9-35.3-24.1-67.3-51.3-90.4S186.7,0,151,0L151,0z M259.1,215.5L152.9,392.8l-109-175.6c-15.7-25.5-21.9-55.7-17.3-85.3
		c4.5-29.6,19.4-56.6,42-76.2S120.1,25.3,150,25c29.9-0.3,58.9,10.2,81.9,29.4s38.3,46,43.2,75.5
		C280.2,159.5,274.5,189.8,259.1,215.5L259.1,215.5z M151,75.5c-20,0-39.3,7.9-53.4,22.1S75.5,131,75.5,151s7.9,39.3,22.1,53.4
		s33.4,22.1,53.4,22.1s39.3-7.9,53.4-22.1c14.2-14.2,22.1-33.4,22.1-53.4s-7.9-39.2-22.2-53.4C190.2,83.5,171,75.5,151,75.5
		L151,75.5z M151,201.6c-13.4,0-26.2-5.3-35.7-14.8s-14.8-22.3-14.8-35.7s5.3-26.2,14.8-35.7s22.3-14.8,35.7-14.8
		c13.4,0,26.2,5.4,35.7,14.8c9.5,9.5,14.8,22.3,14.8,35.7c0,13.4-5.4,26.2-14.8,35.6C177.2,196.1,164.4,201.5,151,201.6L151,201.6z"
		/>
</g>
</svg>
