<?xml version="1.0" encoding="utf-8"?>
<!-- Generator: Adobe Illustrator 26.2.1, SVG Export Plug-In . SVG Version: 6.00 Build 0)  -->
<svg version="1.1" id="Layer_1" xmlns="http://www.w3.org/2000/svg" xmlns:xlink="http://www.w3.org/1999/xlink" x="0px" y="0px"
	 viewBox="0 0 350 497.8" style="enable-background:new 0 0 350 497.8;" xml:space="preserve">
<style type="text/css">
	.st0{fill-rule:evenodd;clip-rule:evenodd;}
</style>
<g>
	<path class="st0" d="M175,0C133.3,0,92.9,14.9,61.2,42.1c-31.7,27.2-52.7,64.7-59.1,106c-6.4,41.2,2.1,83.4,24,118.9L165,490.9
		c2.7,4.3,7.3,6.9,12.4,6.9h0.1h0c5.1,0,9.8-2.7,12.4-7.1l135.4-226v0c21.2-35.6,29.1-77.5,22.3-118.4c-6.8-40.9-27.9-78-59.5-104.8
		C256.5,14.7,216.4,0,175,0L175,0z M300.3,249.7L177.2,455.2L50.9,251.7c-18.2-29.5-25.4-64.5-20.1-98.8
		c5.2-34.3,22.5-65.6,48.7-88.3c26.2-22.7,59.7-35.3,94.3-35.6c34.7-0.3,68.3,11.8,94.9,34.1c26.6,22.3,44.4,53.3,50.1,87.5
		C324.7,184.8,318.1,219.9,300.3,249.7L300.3,249.7z M175,87.5c-23.2,0-45.5,9.2-61.9,25.6c-16.4,16.4-25.6,38.7-25.6,61.9
		c0,23.2,9.2,45.5,25.6,61.9c16.4,16.4,38.7,25.6,61.9,25.6c23.2,0,45.5-9.2,61.9-25.6c16.4-16.4,25.6-38.7,25.6-61.9
		c0-23.2-9.2-45.4-25.7-61.9C220.4,96.8,198.2,87.5,175,87.5L175,87.5z M175,233.6c-15.5,0-30.4-6.1-41.4-17.1
		c-11-11-17.2-25.9-17.2-41.4c0-15.5,6.1-30.4,17.1-41.4c11-11,25.9-17.2,41.4-17.2c15.5,0,30.4,6.2,41.4,17.1
		c11,11,17.2,25.9,17.2,41.4c0,15.5-6.2,30.4-17.1,41.3C205.4,227.3,190.5,233.5,175,233.6L175,233.6z"/>
</g>
</svg>
