<?xml version="1.0" encoding="utf-8"?>
<!-- Generator: Adobe Illustrator 26.2.1, SVG Export Plug-In . SVG Version: 6.00 Build 0)  -->
<svg version="1.1" id="Layer_1" xmlns="http://www.w3.org/2000/svg" xmlns:xlink="http://www.w3.org/1999/xlink" x="0px" y="0px"
	 viewBox="0 0 490 325.4" style="enable-background:new 0 0 490 325.4;" xml:space="preserve">
<g>
	<path d="M126.4,223.8c2.3-9.4-3.3-18.9-12.7-21.2c-6.9-1.8-14.2-2.6-21.6-2.6c-50.8,0-92,41.4-92,92.2v2.1
		c0,9.7,7.8,17.5,17.5,17.5S35,304,35,294.3v-2.1c0-4.7,0.7-9.2,1.8-13.6c6-24.4,27.5-42.6,53.4-43.4c0.6,0,1.2-0.2,1.8-0.2
		c4.5,0,8.9,0.5,13.1,1.6C114.5,238.9,124,233.2,126.4,223.8L126.4,223.8z"/>
	<path d="M92.1,188.9c34.3,0,62.2-27.9,62.2-62.2s-27.9-62.2-62.2-62.2s-62.2,27.9-62.2,62.2C29.8,161,57.8,188.9,92.1,188.9z
		 M92.1,99.4c15,0,27.2,12.2,27.2,27.2c0,15-12.2,27.2-27.2,27.2c-15,0-27.2-12.2-27.2-27.2C64.8,111.6,77.1,99.4,92.1,99.4z"/>
	<path d="M463,227c-17.4-17.4-40.5-27-65-27c-7.4,0-14.6,0.9-21.6,2.6c-9.4,2.3-15.1,11.8-12.7,21.2c2.3,9.4,11.8,15.1,21.2,12.7
		c4.8-1.2,9.9-1.6,14.9-1.4c14.1,0.5,28.2,6.3,38.5,16.6c7.5,7.5,12.5,16.8,14.9,26.9c1.1,4.4,1.8,8.9,1.8,13.6v2.1
		c0,9.7,7.8,17.5,17.5,17.5S490,304,490,294.3v-2.1C490,267.6,480.4,244.4,463,227L463,227z"/>
	<path d="M397.9,188.9c34.3,0,62.3-27.9,62.3-62.2s-27.9-62.2-62.3-62.2c-34.3,0-62.2,27.9-62.2,62.2
		C335.7,161,363.6,188.9,397.9,188.9L397.9,188.9z M397.9,99.4c15,0,27.3,12.2,27.3,27.2c0,15-12.2,27.2-27.3,27.2
		s-27.2-12.2-27.2-27.2C370.7,111.6,382.9,99.4,397.9,99.4L397.9,99.4z"/>
	<path d="M245,179.4c-69.1,0-125.2,56.2-125.2,125.2v3.3c0,9.7,7.8,17.5,17.5,17.5s17.5-7.8,17.5-17.5v-3.3
		c0-49.8,40.5-90.2,90.2-90.2c49.8,0,90.2,40.5,90.2,90.2v3.3c0,9.7,7.8,17.5,17.5,17.5s17.5-7.8,17.5-17.5v-3.3
		C370.2,235.6,314.1,179.4,245,179.4L245,179.4z"/>
	<path d="M245,164.3c45.3,0,82.1-36.8,82.1-82.1C327.1,36.9,290.3,0,245,0c-45.3,0-82.1,36.8-82.1,82.1
		C162.9,127.4,199.7,164.3,245,164.3z M245,35c26,0,47.1,21.1,47.1,47.1S271,129.3,245,129.3s-47.1-21.1-47.1-47.1S219,35,245,35z"
		/>
</g>
</svg>
