<?xml version="1.0" encoding="utf-8"?>
<!-- Generator: Adobe Illustrator 26.2.1, SVG Export Plug-In . SVG Version: 6.00 Build 0)  -->
<svg version="1.1" id="Layer_1" xmlns="http://www.w3.org/2000/svg" xmlns:xlink="http://www.w3.org/1999/xlink" x="0px" y="0px"
	 viewBox="0 0 492.8 492.8" style="enable-background:new 0 0 492.8 492.8;" xml:space="preserve">
<g>
	<path d="M246.4,0C110.5,0,0,110.5,0,246.4s110.5,246.4,246.4,246.4s246.4-110.5,246.4-246.4S382.3,0,246.4,0L246.4,0z M246.4,470.4
		c-123.5,0-224-100.5-224-224s100.5-224,224-224s224,100.5,224,224S369.9,470.4,246.4,470.4z M257.6,242.2V71.9
		c0-6.2-5-11.2-11.2-11.2c-6.2,0-11.2,5-11.2,11.2v174.5c0,2.7,1,5.3,2.8,7.4l98,112c2.2,2.5,5.3,3.8,8.4,3.8c2.6,0,5.2-0.9,7.4-2.8
		c4.7-4.1,5.1-11.1,1.1-15.8L257.6,242.2z"/>
</g>
</svg>
