<?xml version="1.0" encoding="utf-8"?>
<!-- Generator: Adobe Illustrator 26.2.1, SVG Export Plug-In . SVG Version: 6.00 Build 0)  -->
<svg version="1.1" id="Layer_1" xmlns="http://www.w3.org/2000/svg" xmlns:xlink="http://www.w3.org/1999/xlink" x="0px" y="0px"
	 viewBox="0 0 512.2 263.9" style="enable-background:new 0 0 512.2 263.9;" xml:space="preserve">
<g>
	<path d="M475.9,222h-28.7v-28h28.7c4.6,0,8.4-3.8,8.4-8.4V124c0-3.6-2.2-6.7-5.6-7.9l-47.3-16.8c-2.5-0.9-4.8-2.6-6.4-4.7L387.1,45
		c-8-10.6-20.4-16.8-33.6-16.8H208.8c-9.7,0-19,3.9-25.8,10.7l-73.4,73.5c-2.4,2.4-5.6,3.9-9,4.1l-64.7,4.2c-4.4,0.3-7.9,4-7.8,8.4
		v56.6c0,4.6,3.8,8.4,8.4,8.4H76v28H36.4c-9.6,0-18.9-3.9-25.7-10.7C3.9,204.5,0,195.3,0,185.6v-56.5c0-9.2,3.5-18.1,9.9-24.9
		c6.3-6.7,15-10.8,24.2-11.5l59.5-3.9L162.9,19c12.2-12.2,28.7-19,45.9-19h145c21.8,0.1,42.4,10.3,55.7,27.6L444.8,74l43.4,15.7
		c7,2.6,13.1,7.2,17.4,13.3c4.3,6.1,6.6,13.4,6.6,20.9v61.6c0,9.7-3.8,19-10.6,25.8C494.8,218.1,485.6,222,475.9,222L475.9,222z"/>
	<path d="M164.9,194h188.3v28H164.9V194z"/>
	<path d="M119.2,263.9c-15.8,0-30.9-6.3-42.1-17.4c-11.2-11.2-17.4-26.3-17.4-42.1c0-15.8,6.3-30.9,17.4-42.1
		c11.2-11.2,26.3-17.4,42.1-17.5c15.8,0,30.9,6.2,42.1,17.4c11.2,11.2,17.5,26.3,17.5,42.1c0,15.8-6.3,30.9-17.4,42.1
		C150.1,257.6,135,263.8,119.2,263.9L119.2,263.9z M119.2,172.8c-8.4,0-16.4,3.3-22.3,9.2c-5.9,5.9-9.2,13.9-9.2,22.3
		c0,8.4,3.3,16.4,9.2,22.3c5.9,5.9,13.9,9.2,22.3,9.2c8.4,0,16.4-3.3,22.3-9.2c5.9-5.9,9.2-13.9,9.2-22.3c0-8.4-3.3-16.4-9.2-22.3
		C135.6,176.1,127.6,172.8,119.2,172.8L119.2,172.8z"/>
	<path d="M399.2,263.9c-15.8,0.1-31-6.2-42.2-17.3c-11.2-11.1-17.5-26.3-17.6-42.1c0-15.8,6.2-31,17.3-42.2
		c11.1-11.2,26.3-17.5,42.1-17.5c15.8,0,31,6.2,42.1,17.4c11.2,11.2,17.5,26.3,17.5,42.1c0,15.8-6.3,30.9-17.4,42
		C430,257.5,415,263.8,399.2,263.9L399.2,263.9z M399.2,172.8c-8.4,0-16.4,3.3-22.3,9.2c-5.9,5.9-9.2,13.9-9.2,22.3
		c0,8.4,3.3,16.4,9.2,22.3c5.9,5.9,13.9,9.2,22.3,9.2c8.4,0,16.4-3.3,22.3-9.2c5.9-5.9,9.2-13.9,9.2-22.3c0-8.4-3.3-16.4-9.2-22.3
		C415.6,176.1,407.6,172.8,399.2,172.8L399.2,172.8z"/>
</g>
</svg>
